<svg xmlns="http://www.w3.org/2000/svg" version="1.1" viewBox="-5.0 -10.0 110.0 135.0">
 <path d="m37.5 59.375v15.625c0 1.6562-0.66016 3.2461-1.832 4.418s-2.7617 1.832-4.418 1.832h-9.375c-1.6562 0-3.2461-0.66016-4.418-1.832s-1.832-2.7617-1.832-4.418v-50c0-1.6562 0.66016-3.2461 1.832-4.418s2.7617-1.832 4.418-1.832h9.375c1.6562 0 3.2461 0.66016 4.418 1.832s1.832 2.7617 1.832 4.418v15.625h25v-15.625c0-1.6562 0.66016-3.2461 1.832-4.418s2.7617-1.832 4.418-1.832h9.375c1.6562 0 3.2461 0.66016 4.418 1.832s1.832 2.7617 1.832 4.418v50c0 1.6562-0.66016 3.2461-1.832 4.418s-2.7617 1.832-4.418 1.832h-9.375c-1.6562 0-3.2461-0.66016-4.418-1.832s-1.832-2.7617-1.832-4.418v-15.625zm-6.25 15.625v-50h-9.375v50zm37.5-50v50h9.375v-50zm-6.25 21.875h-25v6.25h25zm-50 21.875h-3.125c-3.4531 0-6.25-2.7969-6.25-6.25v-25c0-3.4531 2.7969-6.25 6.25-6.25h3.125v6.25h-3.125v25h3.125zm75-37.5h3.125c3.4531 0 6.25 2.7969 6.25 6.25v25c0 3.4531-2.7969 6.25-6.25 6.25h-3.125v-6.25h3.125v-25h-3.125z" fill-rule="evenodd"/>
<text x="0.0" y="117.5" font-size="5.0" font-weight="bold" font-family="Arbeit Regular, Helvetica, Arial-Unicode, Arial, Sans-serif" fill="#000000">Created by Hary Murdiono JS</text><text x="0.0" y="122.5" font-size="5.0" font-weight="bold" font-family="Arbeit Regular, Helvetica, Arial-Unicode, Arial, Sans-serif" fill="#000000">from Noun Project</text></svg>