<svg xmlns="http://www.w3.org/2000/svg" data-name="Layer 1" viewBox="0 0 100 125" x="0px" y="0px"><title>collection2</title><path d="M17.60965,74.7218h7.81446a1.5841,1.5841,0,0,0,1.55029-1.25824l1.1554-5.49725a.90777.90777,0,0,0-.88831-1.09448H19.434a1.58412,1.58412,0,0,0-1.54981,1.2564l-1.1626,5.498A.90776.90776,0,0,0,17.60965,74.7218Z"/><path d="M20.53971,60.87183h7.806a1.58407,1.58407,0,0,0,1.5498-1.25629l1.16285-5.49817a.90789.90789,0,0,0-.88819-1.09558H22.36405a1.584,1.584,0,0,0-1.54981,1.25635l-1.16259,5.49817A.90763.90763,0,0,0,20.53971,60.87183Z"/><path d="M32.93973,74.7218H40.7559a1.58413,1.58413,0,0,0,1.5498-1.25635l1.1626-5.498a.9078.9078,0,0,0-.88819-1.09558h-7.816a1.58412,1.58412,0,0,0-1.5498,1.25634l-1.16272,5.49811A.90777.90777,0,0,0,32.93973,74.7218Z"/><path d="M35.86966,60.87183h7.81617a1.58413,1.58413,0,0,0,1.5498-1.25635l1.1626-5.49811a.9078.9078,0,0,0-.88818-1.09558H37.694A1.58412,1.58412,0,0,0,36.1442,54.2782l-1.1626,5.49811A.90776.90776,0,0,0,35.86966,60.87183Z"/><path d="M38.79838,47.02179h7.81738a1.58412,1.58412,0,0,0,1.5498-1.25635l1.1626-5.498a.90772.90772,0,0,0-.88806-1.09559H40.61564a1.584,1.584,0,0,0-1.55017,1.25824L37.91,45.92731A.90773.90773,0,0,0,38.79838,47.02179Z"/><path d="M48.55423,68.12817l-1.16259,5.49811a.90763.90763,0,0,0,.88806,1.09552h7.81445a1.584,1.584,0,0,0,1.55017-1.25818l1.15552-5.49725a.90768.90768,0,0,0-.88818-1.09454H50.104A1.584,1.584,0,0,0,48.55423,68.12817Z"/><path d="M51.20975,60.87183h7.806a1.58413,1.58413,0,0,0,1.54981-1.25635l1.16272-5.49811a.9078.9078,0,0,0-.88819-1.09558h-7.806a1.58413,1.58413,0,0,0-1.5498,1.25635l-1.16272,5.49817A.90777.90777,0,0,0,51.20975,60.87183Z"/><path d="M54.13834,47.02179h7.8075a1.58413,1.58413,0,0,0,1.5498-1.25635l1.1626-5.498a.90781.90781,0,0,0-.88818-1.09559H55.9556a1.58414,1.58414,0,0,0-1.55017,1.2583L53.25,45.92737A.90768.90768,0,0,0,54.13834,47.02179Z"/><path d="M63.88419,68.12823l-1.1626,5.498a.90776.90776,0,0,0,.88806,1.09552h7.81446a1.5841,1.5841,0,0,0,1.55029-1.25824l1.1554-5.49725a.90777.90777,0,0,0-.88831-1.09448H65.434A1.58412,1.58412,0,0,0,63.88419,68.12823Z"/><path d="M66.53971,60.87183h7.806a1.58407,1.58407,0,0,0,1.5498-1.25629l1.16285-5.49817a.90789.90789,0,0,0-.88819-1.09558H68.36405a1.584,1.584,0,0,0-1.54981,1.25635l-1.16259,5.49817A.90763.90763,0,0,0,66.53971,60.87183Z"/><path d="M69.4683,47.02179h7.80749a1.58413,1.58413,0,0,0,1.54981-1.25635l1.16272-5.498a.90781.90781,0,0,0-.88819-1.09559H71.28568a1.58414,1.58414,0,0,0-1.55017,1.25824L68.58,45.92731A.90777.90777,0,0,0,69.4683,47.02179Z"/><path d="M37.63,22.6958a4.27508,4.27508,0,0,0,4.275-4.275V9.275a4.275,4.275,0,0,0-8.55,0v9.14582A4.27507,4.27507,0,0,0,37.63,22.6958Z"/><path d="M17.26029,84.55841v2.21033A8.23118,8.23118,0,0,0,25.49149,95H86.76871A8.23129,8.23129,0,0,0,95,86.76874V25.49152a8.23134,8.23134,0,0,0-8.23133-8.23127H82.60526v.87842a8.16406,8.16406,0,0,1-7.42969,8.23889,7.98318,7.98318,0,0,1-8.5205-7.95678V17.26025H45.60526v.87842a8.16406,8.16406,0,0,1-7.42969,8.23889,7.98318,7.98318,0,0,1-8.5205-7.95678V17.26025H25.50028A9.83388,9.83388,0,0,0,18.05423,21a12.67853,12.67853,0,0,0-1.863,4.20709L5.13382,77.52618c-.81933,3.87745,2.20777,7.03223,6.74854,7.03223ZM90.427,86.76874a3.65838,3.65838,0,0,1-3.65845,3.65832H25.49149A3.65838,3.65838,0,0,1,21.833,86.76874V84.55841H73.15262c4.54078,0,8.90161-3.15478,9.721-7.03223l7.55347-35.74ZM9.70682,77.52618l9.37427-44.35626h68.594L78.30057,77.52618a4.44517,4.44517,0,0,1-4.32275,3.12732h-61.27C10.68827,80.6535,9.34232,79.25055,9.70682,77.52618Z"/><path d="M74.63,22.6958a4.27508,4.27508,0,0,0,4.275-4.275V9.275a4.275,4.275,0,0,0-8.55,0v9.14582A4.27507,4.27507,0,0,0,74.63,22.6958Z"/><text x="0" y="115" fill="#000000" font-size="5px" font-weight="bold" font-family="'Helvetica Neue', Helvetica, Arial-Unicode, Arial, Sans-serif">Created by Lyhn</text><text x="0" y="120" fill="#000000" font-size="5px" font-weight="bold" font-family="'Helvetica Neue', Helvetica, Arial-Unicode, Arial, Sans-serif">from the Noun Project</text></svg>