<svg xmlns="http://www.w3.org/2000/svg" xmlns:xlink="http://www.w3.org/1999/xlink" version="1.1" x="0px" y="0px" viewBox="-25.6 -51.2 563.2 691.2" style="enable-background:new 0 0 512 512;" xml:space="preserve"><path d="M247.4,66.2c-2.6-2-3.1-5.8-1.1-8.4c2-2.6,5.8-3.1,8.4-1.1l33.5,25.7c3.2,2.5,3.1,7.2-0.1,9.6l-33.4,25.6  c-2.6,2-6.4,1.5-8.4-1.1c-2-2.6-1.5-6.4,1.1-8.4l27.3-20.9L247.4,66.2z M200.9,119.4c-1.6,2.9-5.3,3.9-8.2,2.2  c-2.9-1.6-3.9-5.3-2.2-8.2l33.8-58.6c1.6-2.9,5.3-3.9,8.2-2.2c2.8,1.6,3.8,5.3,2.2,8.2L200.9,119.4z M170.6,56.7  c2.6-2,6.4-1.5,8.4,1.1c2,2.6,1.5,6.4-1.1,8.4l-27.3,20.9l27.3,20.9c2.6,2,3.1,5.8,1.1,8.4c-2,2.6-5.8,3.1-8.4,1.1L137.2,92  c-3.1-2.4-3.3-7.1-0.1-9.6L170.6,56.7z M44.5,25h336.2c3.3,0,6,2.7,6,6v182.3l35.4-42.1c2.1-2.6,5.9-2.9,8.4-0.8l40.7,34.2  c2.5,2.1,2.9,5.9,0.7,8.4l-85.3,101.6V481c0,3.3-2.7,6-6,6H44.5c-3.3,0-6-2.7-6-6V31C38.5,27.7,41.2,25,44.5,25L44.5,25z M374.8,37  H50.6v100.3h324.2V37z M374.8,328.9L309.2,407c-0.7,0.8-1.5,1.4-2.4,1.7l-52.9,22.1c-4.5,1.9-9.2-2.2-8.2-6.8l0,0l12.2-56.4  c0.2-1.1,0.7-2,1.4-2.8l115.3-137.4v-78.3H50.6V475h324.2V328.9z M459,209.9l-31.5-26.5L269.4,371.7l-9.5,43.7l41-17.2L459,209.9z   M254.6,303.3c3.3,0,6,2.7,6,6c0,3.3-2.7,6-6,6h-151c-3.3,0-6-2.7-6-6c0-3.3,2.7-6,6-6H254.6z M202.5,401.2c3.3,0,6,2.7,6,6  s-2.7,6-6,6h-98.8c-3.3,0-6-2.7-6-6s2.7-6,6-6H202.5z M240.2,352.3c3.3,0,6,2.7,6,6c0,3.3-2.7,6-6,6H103.6c-3.3,0-6-2.7-6-6  c0-3.3,2.7-6,6-6H240.2z M321.2,205.5c3.3,0,6,2.7,6,6c0,3.3-2.7,6-6,6H103.6c-3.3,0-6-2.7-6-6c0-3.3,2.7-6,6-6H321.2z M281.1,254.4  c3.3,0,6,2.7,6,6s-2.7,6-6,6H103.6c-3.3,0-6-2.7-6-6s2.7-6,6-6H281.1z"/><text x="0.0" y="601.6" font-size="25.6" font-weight="bold" font-family="Arbeit Regular, Helvetica, Arial-Unicode, Arial, Sans-serif" fill="#000000">Created by Afianroc</text><text x="0.0" y="627.2" font-size="25.6" font-weight="bold" font-family="Arbeit Regular, Helvetica, Arial-Unicode, Arial, Sans-serif" fill="#000000">from Noun Project</text></svg>